<?xml version="1.0" encoding="iso-8859-1"?>
<!-- Generator: Adobe Illustrator 17.1.0, SVG Export Plug-In . SVG Version: 6.00 Build 0)  -->
<!DOCTYPE svg PUBLIC "-//W3C//DTD SVG 1.1//EN" "http://www.w3.org/Graphics/SVG/1.1/DTD/svg11.dtd">
<svg version="1.1" id="Capa_1" xmlns="http://www.w3.org/2000/svg" xmlns:xlink="http://www.w3.org/1999/xlink" x="0px" y="0px"
	 viewBox="0 0 383.446 383.446" style="enable-background:new 0 0 383.446 383.446;" xml:space="preserve">
<path d="M235.981,256.434c0,5.523-4.476,10-9.999,10.001l-19.506,0.002c-5.523,0-10-4.476-10.001-9.999
	c0-5.523,4.476-10,9.999-10.001l19.506-0.002C231.503,246.435,235.98,250.911,235.981,256.434z M315.482,131.577
	c-0.126,3.45-2.024,6.591-5.02,8.309c-10.504,6.022-22.433,9.727-35.457,11.013c-5.506,0.544-10.392-3.473-10.935-8.969
	c-0.542-5.496,3.473-10.392,8.969-10.934c4.587-0.453,9.059-1.308,13.319-2.536c-8.772-8.41-17.09-18.894-24.474-30.784
	c-5.108,22.803-17.301,40.915-35.326,51.623c-10.718,6.367-22.736,9.551-34.753,9.551c-12.017,0-24.035-3.184-34.753-9.551
	c-18.112-10.76-30.335-28.997-35.4-51.957c-6.961,11.267-15.224,22.136-24.585,31.131c3.896,1.121,7.982,1.926,12.236,2.406
	c5.488,0.62,9.434,5.572,8.814,11.059c-0.621,5.488-5.576,9.435-11.06,8.814c-12.491-1.411-23.956-5.067-34.075-10.866
	c-2.996-1.717-4.894-4.858-5.021-8.309s1.535-6.723,4.397-8.655c15.917-10.749,31.665-31.378,42.869-55.64
	c1.945-4.211,7.974-22.637,9.921-26.96C134.8,18.903,154.65,6.13,175.541,1.378c2.665-0.606,13.041-1.552,17.689-1.35
	c6.759,0.294,15.015,0.983,18.137,2.168c20.45,5.517,39.419,18.85,48.148,40.6c1.561,3.889,7.309,21.531,9.372,25.895
	c11.18,23.648,26.68,43.75,42.198,54.231C313.947,124.855,315.609,128.127,315.482,131.577z M139.062,69.041
	c10.865,0.211,21.626-3.304,30.415-10.087c2.479-1.913,5.109-4.314,7.675-7.302c0.222-0.296,0.462-0.582,0.72-0.856
	c5.784-7.026,11.137-17.124,13.563-31.478c-24.219,1.109-48.911,15.232-52.043,44.47C139.25,65.105,139.073,68.639,139.062,69.041z
	 M243.042,89.931c-20.925,3.618-42.258-2.823-58.148-17.768c-1.04,0.906-2.106,1.781-3.197,2.623
	c-11.95,9.223-26.491,14.163-41.284,14.261c3.355,19.446,12.671,34.629,26.855,43.056c15.137,8.992,33.941,8.992,49.076,0
	C230.312,123.805,239.56,108.953,243.042,89.931z M244.552,69.097c-0.011-0.42-0.024-0.843-0.041-1.265
	c-0.894-23.893-15.535-38.516-33.435-44.868c-2.249,12.809-6.684,24.335-13.057,34.066
	C210.592,69.174,228.061,73.722,244.552,69.097z M280.281,244.162c-8.272-44.661-50.437-64.716-88.555-64.716
	c-0.002,0,0.001,0-0.001,0c-38.117,0-80.285,20.056-88.557,64.716L79.599,371.427c-0.541,2.921,0.245,6.031,2.145,8.315
	s4.717,3.704,7.688,3.704h130.656c5.523,0,10-4.477,10-10c0-5.523-4.477-10-10-10H101.455l21.377-115.495
	c6.18-33.363,39.055-48.338,68.894-48.338c29.837,0,62.71,14.913,68.89,48.275l23.57,127.223c0.892,4.815,5.095,8.175,9.821,8.175
	c0.604,0,1.217-0.058,1.833-0.172c5.431-1.006,9.018-6.257,8.011-11.687L280.281,244.162z"/>
<g>
</g>
<g>
</g>
<g>
</g>
<g>
</g>
<g>
</g>
<g>
</g>
<g>
</g>
<g>
</g>
<g>
</g>
<g>
</g>
<g>
</g>
<g>
</g>
<g>
</g>
<g>
</g>
<g>
</g>
</svg>
